<?xml version="1.0" encoding="iso-8859-1"?>
<!-- Generator: Adobe Illustrator 20.1.0, SVG Export Plug-In . SVG Version: 6.00 Build 0)  -->
<svg xmlns="http://www.w3.org/2000/svg" xmlns:xlink="http://www.w3.org/1999/xlink" version="1.1" id="&#1057;&#1083;&#1086;&#1081;_1" x="0px" y="0px" viewBox="0 0 64 64" style="enable-background:new 0 0 64 64;" xml:space="preserve">
<linearGradient id="SVGID_1__48324" gradientUnits="userSpaceOnUse" x1="37" y1="13.5" x2="37" y2="18.7095" spreadMethod="reflect">
	<stop offset="0" style="stop-color:#6DC7FF"/>
	<stop offset="1" style="stop-color:#E6ABFF"/>
</linearGradient>
<rect x="20" y="15" style="fill:url(#SVGID_1__48324);" width="34" height="2"/>
<linearGradient id="SVGID_2__48324" gradientUnits="userSpaceOnUse" x1="37" y1="29.6667" x2="37" y2="34.3807" spreadMethod="reflect">
	<stop offset="0" style="stop-color:#6DC7FF"/>
	<stop offset="1" style="stop-color:#E6ABFF"/>
</linearGradient>
<rect x="20" y="31" style="fill:url(#SVGID_2__48324);" width="34" height="2"/>
<linearGradient id="SVGID_3__48324" gradientUnits="userSpaceOnUse" x1="37" y1="45.5" x2="37" y2="50.5443" spreadMethod="reflect">
	<stop offset="0" style="stop-color:#6DC7FF"/>
	<stop offset="1" style="stop-color:#E6ABFF"/>
</linearGradient>
<rect x="20" y="47" style="fill:url(#SVGID_3__48324);" width="34" height="2"/>
<linearGradient id="SVGID_4__48324" gradientUnits="userSpaceOnUse" x1="37" y1="9" x2="37" y2="55.8333" spreadMethod="reflect">
	<stop offset="0" style="stop-color:#1A6DFF"/>
	<stop offset="1" style="stop-color:#C822FF"/>
</linearGradient>
<path style="fill:url(#SVGID_4__48324);" d="M55,10H19c-1.654,0-3,1.346-3,3v6c0,1.654,1.346,3,3,3h36c1.654,0,3-1.346,3-3v-6  C58,11.346,56.654,10,55,10z M56,19c0,0.551-0.449,1-1,1H19c-0.551,0-1-0.449-1-1v-6c0-0.551,0.449-1,1-1h36c0.551,0,1,0.449,1,1V19  z"/>
<linearGradient id="SVGID_5__48324" gradientUnits="userSpaceOnUse" x1="9" y1="9" x2="9" y2="55.8333" spreadMethod="reflect">
	<stop offset="0" style="stop-color:#1A6DFF"/>
	<stop offset="1" style="stop-color:#C822FF"/>
</linearGradient>
<polygon style="fill:url(#SVGID_5__48324);" points="10,10 6,10 6,12 8,12 8,20 6,20 6,22 12,22 12,20 10,20 "/>
<linearGradient id="SVGID_6__48324" gradientUnits="userSpaceOnUse" x1="37" y1="9" x2="37" y2="55.8333" spreadMethod="reflect">
	<stop offset="0" style="stop-color:#1A6DFF"/>
	<stop offset="1" style="stop-color:#C822FF"/>
</linearGradient>
<path style="fill:url(#SVGID_6__48324);" d="M55,26H19c-1.654,0-3,1.346-3,3v6c0,1.654,1.346,3,3,3h36c1.654,0,3-1.346,3-3v-6  C58,27.346,56.654,26,55,26z M56,35c0,0.551-0.449,1-1,1H19c-0.551,0-1-0.449-1-1v-6c0-0.551,0.449-1,1-1h36c0.551,0,1,0.449,1,1V35  z"/>
<linearGradient id="SVGID_7__48324" gradientUnits="userSpaceOnUse" x1="9" y1="9" x2="9" y2="55.8333" spreadMethod="reflect">
	<stop offset="0" style="stop-color:#1A6DFF"/>
	<stop offset="1" style="stop-color:#C822FF"/>
</linearGradient>
<path style="fill:url(#SVGID_7__48324);" d="M10,26H6v2h4v3.5l-3.2,2.4C6.299,34.275,6,34.874,6,35.5V36v1v1h6v-2H8v-0.5l3.2-2.4  c0.501-0.375,0.8-0.974,0.8-1.6V28C12,26.897,11.103,26,10,26z"/>
<linearGradient id="SVGID_8__48324" gradientUnits="userSpaceOnUse" x1="37" y1="9" x2="37" y2="55.8333" spreadMethod="reflect">
	<stop offset="0" style="stop-color:#1A6DFF"/>
	<stop offset="1" style="stop-color:#C822FF"/>
</linearGradient>
<path style="fill:url(#SVGID_8__48324);" d="M55,42H19c-1.654,0-3,1.346-3,3v6c0,1.654,1.346,3,3,3h36c1.654,0,3-1.346,3-3v-6  C58,43.346,56.654,42,55,42z M56,51c0,0.551-0.449,1-1,1H19c-0.551,0-1-0.449-1-1v-6c0-0.551,0.449-1,1-1h36c0.551,0,1,0.449,1,1V51  z"/>
<linearGradient id="SVGID_9__48324" gradientUnits="userSpaceOnUse" x1="9" y1="9" x2="9" y2="55.8333" spreadMethod="reflect">
	<stop offset="0" style="stop-color:#1A6DFF"/>
	<stop offset="1" style="stop-color:#C822FF"/>
</linearGradient>
<path style="fill:url(#SVGID_9__48324);" d="M10,42H6v2h4v3H6v2h4v3H6v2h4c1.103,0,2-0.897,2-2v-8C12,42.897,11.103,42,10,42z"/>
</svg>
